<svg width="205" height="102" viewBox="0 0 205 102" fill="none" xmlns="http://www.w3.org/2000/svg">
<path d="M7.32039 20.24C6.21372 20.24 5.20706 19.98 4.30039 19.46C3.40706 18.94 2.69372 18.18 2.16039 17.18C1.64039 16.1667 1.38039 14.94 1.38039 13.5C1.38039 12.4333 1.53372 11.48 1.84039 10.64C2.14706 9.78667 2.57372 9.06667 3.12039 8.48C3.68039 7.89333 4.32039 7.44667 5.04039 7.14C5.76039 6.83333 6.53372 6.68 7.36039 6.68C8.18706 6.68 8.92039 6.84667 9.56039 7.18C10.2004 7.5 10.7271 7.88667 11.1404 8.34L9.90039 9.76C9.56706 9.41333 9.19372 9.15333 8.78039 8.98C8.38039 8.79333 7.92706 8.7 7.42039 8.7C6.72706 8.7 6.10039 8.89333 5.54039 9.28C4.99372 9.66667 4.56039 10.2133 4.24039 10.92C3.92039 11.6267 3.76039 12.4667 3.76039 13.44C3.76039 14.44 3.91372 15.3 4.22039 16.02C4.52706 16.7267 4.96039 17.2733 5.52039 17.66C6.08039 18.0333 6.73372 18.22 7.48039 18.22C8.04039 18.22 8.54039 18.1067 8.98039 17.88C9.42039 17.6533 9.82039 17.3533 10.1804 16.98L11.3604 18.36C10.8271 18.9733 10.2271 19.44 9.56039 19.76C8.89372 20.08 8.14706 20.24 7.32039 20.24ZM13.3838 20V10.18H15.2838L15.4438 11.92H15.5238C15.8705 11.28 16.2838 10.7933 16.7638 10.46C17.2572 10.1133 17.7705 9.94 18.3038 9.94C18.5572 9.94 18.7705 9.95333 18.9438 9.98C19.1172 10.0067 19.2772 10.06 19.4238 10.14L18.9638 12.1C18.8038 12.06 18.6572 12.0333 18.5238 12.02C18.3905 11.9933 18.2172 11.98 18.0038 11.98C17.6172 11.98 17.2105 12.1333 16.7838 12.44C16.3572 12.7333 15.9905 13.2533 15.6838 14V20H13.3838ZM22.717 20.24C22.1436 20.24 21.637 20.12 21.197 19.88C20.757 19.64 20.4103 19.3067 20.157 18.88C19.917 18.44 19.797 17.9333 19.797 17.36C19.797 16.2533 20.257 15.42 21.177 14.86C22.1103 14.2867 23.5836 13.8933 25.597 13.68C25.5836 13.3467 25.517 13.04 25.397 12.76C25.2903 12.48 25.1036 12.26 24.837 12.1C24.5836 11.9267 24.237 11.84 23.797 11.84C23.317 11.84 22.8436 11.9267 22.377 12.1C21.9236 12.2733 21.477 12.4933 21.037 12.76L20.197 11.2C20.557 10.9733 20.9503 10.7667 21.377 10.58C21.8036 10.38 22.257 10.2267 22.737 10.12C23.217 10 23.717 9.94 24.237 9.94C25.0503 9.94 25.7236 10.1067 26.257 10.44C26.8036 10.76 27.2103 11.24 27.477 11.88C27.757 12.5067 27.897 13.28 27.897 14.2V20H25.997L25.837 18.92H25.757C25.3036 19.2933 24.8303 19.6067 24.337 19.86C23.8436 20.1133 23.3036 20.24 22.717 20.24ZM23.437 18.36C23.837 18.36 24.2036 18.28 24.537 18.12C24.8836 17.9467 25.237 17.6933 25.597 17.36V15.28C24.7036 15.3867 23.997 15.5267 23.477 15.7C22.957 15.8733 22.5836 16.0867 22.357 16.34C22.1436 16.58 22.037 16.8667 22.037 17.2C22.037 17.6133 22.1703 17.9133 22.437 18.1C22.7036 18.2733 23.037 18.36 23.437 18.36ZM31.0495 20V9.16C31.0495 8.48 31.1561 7.87333 31.3695 7.34C31.5961 6.80667 31.9495 6.39333 32.4295 6.1C32.9095 5.79333 33.5361 5.64 34.3095 5.64C34.6695 5.64 35.0028 5.67333 35.3095 5.74C35.6295 5.80667 35.8961 5.88667 36.1095 5.98L35.6695 7.7C35.4828 7.62 35.2961 7.56 35.1095 7.52C34.9361 7.48 34.7628 7.46 34.5895 7.46C34.1895 7.46 33.8828 7.59333 33.6695 7.86C33.4561 8.12667 33.3495 8.54667 33.3495 9.12V20H31.0495ZM39.7095 20.24C38.5895 20.24 37.7895 19.9133 37.3095 19.26C36.8428 18.5933 36.6095 17.7333 36.6095 16.68V12H29.5895V10.28L31.0695 10.18H36.7295L37.0095 7.5H38.9095V10.18H41.4295V12H38.9095V16.68C38.9095 17.2533 39.0228 17.6867 39.2495 17.98C39.4895 18.26 39.8428 18.4 40.3095 18.4C40.4828 18.4 40.6628 18.38 40.8495 18.34C41.0361 18.2867 41.1961 18.2333 41.3295 18.18L41.7295 19.88C41.4628 19.96 41.1561 20.04 40.8095 20.12C40.4761 20.2 40.1095 20.24 39.7095 20.24ZM43.4815 20V10.18H45.7815V20H43.4815ZM44.6215 8.46C44.2215 8.46 43.8882 8.34 43.6215 8.1C43.3682 7.86 43.2415 7.54 43.2415 7.14C43.2415 6.74 43.3682 6.42667 43.6215 6.2C43.8882 5.96 44.2215 5.84 44.6215 5.84C45.0348 5.84 45.3682 5.96 45.6215 6.2C45.8748 6.42667 46.0015 6.74 46.0015 7.14C46.0015 7.54 45.8748 7.86 45.6215 8.1C45.3682 8.34 45.0348 8.46 44.6215 8.46ZM48.7159 20V10.18H50.6159L50.7759 11.5H50.8559C51.2959 11.0733 51.7759 10.7067 52.2959 10.4C52.8159 10.0933 53.4092 9.94 54.0759 9.94C55.1292 9.94 55.8959 10.28 56.3759 10.96C56.8559 11.64 57.0959 12.6 57.0959 13.84V20H54.7959V14.14C54.7959 13.3267 54.6759 12.7533 54.4359 12.42C54.1959 12.0867 53.8025 11.92 53.2559 11.92C52.8292 11.92 52.4492 12.0267 52.1159 12.24C51.7959 12.44 51.4292 12.74 51.0159 13.14V20H48.7159ZM63.3273 24.34C62.5406 24.34 61.8406 24.2467 61.2273 24.06C60.6139 23.8733 60.1273 23.5867 59.7673 23.2C59.4206 22.8267 59.2473 22.3533 59.2473 21.78C59.2473 21.3667 59.3673 20.98 59.6073 20.62C59.8606 20.2733 60.2073 19.96 60.6473 19.68V19.6C60.4073 19.44 60.2006 19.2267 60.0273 18.96C59.8539 18.6933 59.7673 18.36 59.7673 17.96C59.7673 17.5867 59.8739 17.24 60.0873 16.92C60.3139 16.6 60.5673 16.34 60.8473 16.14V16.06C60.5139 15.8067 60.2139 15.4533 59.9473 15C59.6939 14.5467 59.5673 14.0333 59.5673 13.46C59.5673 12.7133 59.7473 12.08 60.1073 11.56C60.4673 11.0267 60.9406 10.6267 61.5273 10.36C62.1139 10.08 62.7539 9.94 63.4473 9.94C63.7139 9.94 63.9739 9.96 64.2273 10C64.4806 10.04 64.7006 10.1 64.8873 10.18H68.4073V11.88H66.5673V11.96C66.7539 12.16 66.9006 12.3933 67.0073 12.66C67.1139 12.9133 67.1673 13.2133 67.1673 13.56C67.1673 14.28 67.0006 14.8867 66.6673 15.38C66.3339 15.8733 65.8873 16.2467 65.3273 16.5C64.7673 16.7533 64.1406 16.88 63.4473 16.88C63.2339 16.88 63.0139 16.86 62.7873 16.82C62.5606 16.78 62.3339 16.7133 62.1073 16.62C61.9739 16.7533 61.8606 16.8867 61.7673 17.02C61.6739 17.1533 61.6273 17.3333 61.6273 17.56C61.6273 17.84 61.7473 18.06 61.9873 18.22C62.2273 18.38 62.6406 18.46 63.2273 18.46H64.9673C66.1539 18.46 67.0473 18.6533 67.6473 19.04C68.2606 19.4133 68.5673 20.0267 68.5673 20.88C68.5673 21.52 68.3539 22.1 67.9273 22.62C67.5006 23.1533 66.8939 23.5733 66.1073 23.88C65.3206 24.1867 64.3939 24.34 63.3273 24.34ZM63.4473 15.44C63.7539 15.44 64.0339 15.3667 64.2873 15.22C64.5539 15.06 64.7606 14.8333 64.9073 14.54C65.0673 14.2333 65.1473 13.8733 65.1473 13.46C65.1473 12.8333 64.9806 12.3533 64.6473 12.02C64.3273 11.6867 63.9273 11.52 63.4473 11.52C62.9673 11.52 62.5606 11.6867 62.2273 12.02C61.8939 12.3533 61.7273 12.8333 61.7273 13.46C61.7273 13.8733 61.8073 14.2333 61.9673 14.54C62.1273 14.8333 62.3339 15.06 62.5873 15.22C62.8406 15.3667 63.1273 15.44 63.4473 15.44ZM63.6873 22.84C64.2073 22.84 64.6673 22.7667 65.0673 22.62C65.4673 22.4867 65.7806 22.2933 66.0073 22.04C66.2339 21.8 66.3473 21.54 66.3473 21.26C66.3473 20.8733 66.1939 20.6133 65.8873 20.48C65.5939 20.3467 65.1673 20.28 64.6073 20.28H63.2673C63.0006 20.28 62.7606 20.2667 62.5473 20.24C62.3339 20.2133 62.1273 20.18 61.9273 20.14C61.6739 20.34 61.4806 20.5467 61.3473 20.76C61.2273 20.9733 61.1673 21.2 61.1673 21.44C61.1673 21.88 61.3939 22.22 61.8473 22.46C62.3006 22.7133 62.9139 22.84 63.6873 22.84ZM74.5018 20V6.92H82.3818V8.88H76.8218V12.22H81.5218V14.18H76.8218V18.04H82.5818V20H74.5018ZM83.1413 20L86.2613 14.88L83.3413 10.18H85.8213L86.9213 12.04C87.068 12.3067 87.2147 12.58 87.3613 12.86C87.508 13.14 87.6613 13.42 87.8213 13.7H87.9013C88.0213 13.42 88.148 13.14 88.2813 12.86C88.4147 12.58 88.5413 12.3067 88.6613 12.04L89.6013 10.18H91.9813L89.0813 15.14L92.2013 20H89.7213L88.5213 18.06C88.3613 17.7667 88.1947 17.4733 88.0213 17.18C87.8613 16.8867 87.6947 16.6 87.5213 16.32H87.4413C87.2947 16.6 87.148 16.8867 87.0013 17.18C86.8547 17.46 86.7147 17.7533 86.5813 18.06L85.5413 20H83.1413ZM97.6605 20.24C96.7539 20.24 95.9405 20.04 95.2205 19.64C94.5005 19.2267 93.9272 18.64 93.5005 17.88C93.0872 17.1067 92.8805 16.18 92.8805 15.1C92.8805 14.0067 93.1072 13.08 93.5605 12.32C94.0139 11.5467 94.6139 10.96 95.3605 10.56C96.1205 10.1467 96.9339 9.94 97.8005 9.94C98.4272 9.94 98.9739 10.0467 99.4405 10.26C99.9205 10.46 100.334 10.72 100.681 11.04L99.5805 12.48C99.3672 12.28 99.1205 12.12 98.8405 12C98.5739 11.88 98.2672 11.82 97.9205 11.82C97.4005 11.82 96.9405 11.96 96.5405 12.24C96.1405 12.5067 95.8205 12.8867 95.5805 13.38C95.3539 13.86 95.2405 14.4333 95.2405 15.1C95.2405 15.7533 95.3539 16.3267 95.5805 16.82C95.8072 17.3 96.1139 17.68 96.5005 17.96C96.9005 18.2267 97.3605 18.36 97.8805 18.36C98.2672 18.36 98.6272 18.2867 98.9605 18.14C99.3072 17.9933 99.6139 17.8067 99.8805 17.58L100.821 19C100.407 19.3733 99.9272 19.6733 99.3805 19.9C98.8472 20.1267 98.2739 20.24 97.6605 20.24ZM106.491 20.24C105.571 20.24 104.737 20.04 103.991 19.64C103.257 19.2267 102.677 18.64 102.251 17.88C101.824 17.1067 101.611 16.1733 101.611 15.08C101.611 14.0133 101.831 13.1 102.271 12.34C102.711 11.5667 103.277 10.9733 103.971 10.56C104.664 10.1467 105.397 9.94 106.171 9.94C107.064 9.94 107.811 10.14 108.411 10.54C109.011 10.94 109.457 11.4933 109.751 12.2C110.057 12.8933 110.211 13.6933 110.211 14.6C110.211 14.8133 110.197 15.02 110.171 15.22C110.157 15.42 110.131 15.6133 110.091 15.8H103.331V14.04H108.171C108.171 13.3333 108.011 12.78 107.691 12.38C107.371 11.9667 106.877 11.76 106.211 11.76C105.837 11.76 105.471 11.86 105.111 12.06C104.764 12.26 104.471 12.6 104.231 13.08C104.004 13.56 103.891 14.2267 103.891 15.08C103.891 15.8533 104.024 16.4867 104.291 16.98C104.557 17.46 104.911 17.82 105.351 18.06C105.791 18.2867 106.264 18.4 106.771 18.4C107.197 18.4 107.597 18.34 107.971 18.22C108.357 18.1 108.717 17.9333 109.051 17.72L109.851 19.2C109.397 19.52 108.877 19.7733 108.291 19.96C107.717 20.1467 107.117 20.24 106.491 20.24ZM114.647 20.2C114.101 20.2 113.661 20.0933 113.327 19.88C113.007 19.6533 112.774 19.3333 112.627 18.92C112.481 18.5067 112.407 18.0133 112.407 17.44V5.88H114.707V17.56C114.707 17.8533 114.761 18.0533 114.867 18.16C114.974 18.2667 115.094 18.32 115.227 18.32C115.281 18.32 115.327 18.32 115.367 18.32C115.421 18.3067 115.487 18.2933 115.567 18.28L115.867 20C115.734 20.0533 115.561 20.1 115.347 20.14C115.147 20.18 114.914 20.2 114.647 20.2ZM120.077 20.2C119.53 20.2 119.09 20.0933 118.757 19.88C118.437 19.6533 118.204 19.3333 118.057 18.92C117.91 18.5067 117.837 18.0133 117.837 17.44V5.88H120.137V17.56C120.137 17.8533 120.19 18.0533 120.297 18.16C120.404 18.2667 120.524 18.32 120.657 18.32C120.71 18.32 120.757 18.32 120.797 18.32C120.85 18.3067 120.917 18.2933 120.997 18.28L121.297 20C121.164 20.0533 120.99 20.1 120.777 20.14C120.577 20.18 120.344 20.2 120.077 20.2ZM127.487 20.24C126.567 20.24 125.733 20.04 124.987 19.64C124.253 19.2267 123.673 18.64 123.247 17.88C122.82 17.1067 122.607 16.1733 122.607 15.08C122.607 14.0133 122.827 13.1 123.267 12.34C123.707 11.5667 124.273 10.9733 124.967 10.56C125.66 10.1467 126.393 9.94 127.167 9.94C128.06 9.94 128.807 10.14 129.407 10.54C130.007 10.94 130.453 11.4933 130.747 12.2C131.053 12.8933 131.207 13.6933 131.207 14.6C131.207 14.8133 131.193 15.02 131.167 15.22C131.153 15.42 131.127 15.6133 131.087 15.8H124.327V14.04H129.167C129.167 13.3333 129.007 12.78 128.687 12.38C128.367 11.9667 127.873 11.76 127.207 11.76C126.833 11.76 126.467 11.86 126.107 12.06C125.76 12.26 125.467 12.6 125.227 13.08C125 13.56 124.887 14.2267 124.887 15.08C124.887 15.8533 125.02 16.4867 125.287 16.98C125.553 17.46 125.907 17.82 126.347 18.06C126.787 18.2867 127.26 18.4 127.767 18.4C128.193 18.4 128.593 18.34 128.967 18.22C129.353 18.1 129.713 17.9333 130.047 17.72L130.847 19.2C130.393 19.52 129.873 19.7733 129.287 19.96C128.713 20.1467 128.113 20.24 127.487 20.24ZM133.403 20V10.18H135.303L135.463 11.5H135.543C135.983 11.0733 136.463 10.7067 136.983 10.4C137.503 10.0933 138.097 9.94 138.763 9.94C139.817 9.94 140.583 10.28 141.063 10.96C141.543 11.64 141.783 12.6 141.783 13.84V20H139.483V14.14C139.483 13.3267 139.363 12.7533 139.123 12.42C138.883 12.0867 138.49 11.92 137.943 11.92C137.517 11.92 137.137 12.0267 136.803 12.24C136.483 12.44 136.117 12.74 135.703 13.14V20H133.403ZM148.735 20.24C147.828 20.24 147.015 20.04 146.295 19.64C145.575 19.2267 145.001 18.64 144.575 17.88C144.161 17.1067 143.955 16.18 143.955 15.1C143.955 14.0067 144.181 13.08 144.635 12.32C145.088 11.5467 145.688 10.96 146.435 10.56C147.195 10.1467 148.008 9.94 148.875 9.94C149.501 9.94 150.048 10.0467 150.515 10.26C150.995 10.46 151.408 10.72 151.755 11.04L150.655 12.48C150.441 12.28 150.195 12.12 149.915 12C149.648 11.88 149.341 11.82 148.995 11.82C148.475 11.82 148.015 11.96 147.615 12.24C147.215 12.5067 146.895 12.8867 146.655 13.38C146.428 13.86 146.315 14.4333 146.315 15.1C146.315 15.7533 146.428 16.3267 146.655 16.82C146.881 17.3 147.188 17.68 147.575 17.96C147.975 18.2267 148.435 18.36 148.955 18.36C149.341 18.36 149.701 18.2867 150.035 18.14C150.381 17.9933 150.688 17.8067 150.955 17.58L151.895 19C151.481 19.3733 151.001 19.6733 150.455 19.9C149.921 20.1267 149.348 20.24 148.735 20.24ZM157.565 20.24C156.645 20.24 155.811 20.04 155.065 19.64C154.331 19.2267 153.751 18.64 153.325 17.88C152.898 17.1067 152.685 16.1733 152.685 15.08C152.685 14.0133 152.905 13.1 153.345 12.34C153.785 11.5667 154.351 10.9733 155.045 10.56C155.738 10.1467 156.471 9.94 157.245 9.94C158.138 9.94 158.885 10.14 159.485 10.54C160.085 10.94 160.531 11.4933 160.825 12.2C161.131 12.8933 161.285 13.6933 161.285 14.6C161.285 14.8133 161.271 15.02 161.245 15.22C161.231 15.42 161.205 15.6133 161.165 15.8H154.405V14.04H159.245C159.245 13.3333 159.085 12.78 158.765 12.38C158.445 11.9667 157.951 11.76 157.285 11.76C156.911 11.76 156.545 11.86 156.185 12.06C155.838 12.26 155.545 12.6 155.305 13.08C155.078 13.56 154.965 14.2267 154.965 15.08C154.965 15.8533 155.098 16.4867 155.365 16.98C155.631 17.46 155.985 17.82 156.425 18.06C156.865 18.2867 157.338 18.4 157.845 18.4C158.271 18.4 158.671 18.34 159.045 18.22C159.431 18.1 159.791 17.9333 160.125 17.72L160.925 19.2C160.471 19.52 159.951 19.7733 159.365 19.96C158.791 20.1467 158.191 20.24 157.565 20.24ZM169.105 20L166.505 10.18H168.865L170.025 15.28C170.132 15.72 170.225 16.1733 170.305 16.64C170.385 17.0933 170.459 17.6133 170.525 18.2H170.605C170.699 17.6133 170.785 17.0933 170.865 16.64C170.959 16.1733 171.052 15.72 171.145 15.28L172.345 10.18H174.745L175.985 15.28C176.092 15.72 176.192 16.1733 176.285 16.64C176.379 17.0933 176.472 17.6133 176.565 18.2H176.645C176.739 17.6133 176.819 17.0933 176.885 16.64C176.965 16.1733 177.052 15.72 177.145 15.28L178.305 10.18H180.505L178.005 20H175.065L174.065 15.44C173.972 15 173.879 14.56 173.785 14.12C173.705 13.6667 173.625 13.12 173.545 12.48H173.465C173.385 13.12 173.305 13.6667 173.225 14.12C173.145 14.56 173.052 15 172.945 15.44L171.945 20H169.105ZM182.446 20V10.18H184.746V20H182.446ZM183.586 8.46C183.186 8.46 182.853 8.34 182.586 8.1C182.333 7.86 182.206 7.54 182.206 7.14C182.206 6.74 182.333 6.42667 182.586 6.2C182.853 5.96 183.186 5.84 183.586 5.84C184 5.84 184.333 5.96 184.586 6.2C184.84 6.42667 184.966 6.74 184.966 7.14C184.966 7.54 184.84 7.86 184.586 8.1C184.333 8.34 184 8.46 183.586 8.46ZM191.141 20.2C190.007 20.2 189.201 19.8733 188.721 19.22C188.254 18.5533 188.021 17.6933 188.021 16.64V12H186.621V10.28L188.141 10.18L188.421 7.1H190.341V10.18H192.841V12H190.341V16.64C190.341 17.2133 190.454 17.6467 190.681 17.94C190.907 18.22 191.254 18.36 191.721 18.36C191.894 18.36 192.067 18.3467 192.241 18.32C192.414 18.2933 192.581 18.24 192.741 18.16L193.161 19.78C192.907 19.9 192.607 20 192.261 20.08C191.914 20.16 191.541 20.2 191.141 20.2ZM194.907 20V5.88H197.207V9.52L197.127 11.42C197.541 11.0333 198.001 10.6933 198.507 10.4C199.014 10.0933 199.601 9.94 200.267 9.94C201.321 9.94 202.087 10.28 202.567 10.96C203.047 11.64 203.287 12.6 203.287 13.84V20H200.987V14.14C200.987 13.3267 200.867 12.7533 200.627 12.42C200.387 12.0867 199.994 11.92 199.447 11.92C199.021 11.92 198.641 12.0267 198.307 12.24C197.987 12.44 197.621 12.74 197.207 13.14V20H194.907Z" fill="white"/>
<g clip-path="url(#clip0_117_24250)">
<path d="M14.3015 87.398L0.106445 87.2965L7.77783 72.8784" fill="#004496"/>
<path d="M22.0858 72.0403L7.76367 72.8796L14.3014 87.3991" fill="#0050AA"/>
<path d="M15.5737 58.1091L7.76367 72.8796L22.0858 72.0403" fill="#005BBF"/>
<path d="M22.0854 72.0438L15.4521 58.1104L28.9248 58.2073" fill="#007EFC"/>
<path d="M35.3928 73.0772L22.0879 71.9232L28.9262 58.2041" fill="#005BBF"/>
<path d="M35.3918 73.0782L22.0869 71.9242L27.4991 85.9466" fill="#0050AA"/>
<path d="M28.9288 86.3351L20.7168 100.446L35.1239 101.344" fill="#004496"/>
<path d="M51.1276 72.541L36.6436 72.8181L42.4262 87.6809" fill="#0072E8"/>
<path d="M28.8643 86.4492L42.6387 87.3078L36.6452 72.9034L28.8643 86.4492Z" fill="#005BBF"/>
<path d="M36.7354 72.9094L50.9782 72.6175L45.382 58.5917L36.7354 72.9094Z" fill="#005BBF"/>
<path d="M35.0578 101.335L28.8545 86.4463L42.6313 87.3049" fill="#0050AA"/>
<path d="M45.2607 58.5859L50.9618 72.8546L58.7078 59.4241L45.2607 58.5859Z" fill="#007EFC"/>
</g>
<path d="M62.6687 87.0009L59.4883 86.9777L64.4368 72.9758L68.2615 73.0037L72.9979 87.0764L69.8176 87.0532L66.3805 76.1979L66.2709 76.1971L62.6687 87.0009ZM62.5102 81.4819L70.0224 81.5368L70.0055 83.8535L62.4933 83.7986L62.5102 81.4819ZM74.6875 87.0888L74.7901 73.0514L80.3282 73.0919C81.3883 73.0997 82.2917 73.2959 83.0383 73.6807C83.7895 74.0609 84.3591 74.5974 84.747 75.2902C85.1396 75.9786 85.3325 76.7865 85.3257 77.7141C85.3189 78.6463 85.1119 79.4468 84.7049 80.1155C84.2979 80.7797 83.7116 81.2873 82.9459 81.6381C82.1848 81.989 81.265 82.1605 80.1866 82.1526L76.4785 82.1255L76.4959 79.7402L79.7242 79.7638C80.2909 79.768 80.7621 79.6937 81.1379 79.5411C81.5137 79.3885 81.7942 79.1575 81.9792 78.8481C82.1688 78.5387 82.2653 78.1533 82.2687 77.6918C82.2721 77.2257 82.1813 76.832 81.9963 76.5108C81.8159 76.1896 81.5366 75.9454 81.1586 75.7781C80.7851 75.6063 80.3128 75.5183 79.7416 75.5141L77.7402 75.4995L77.6553 87.1105L74.6875 87.0888ZM82.3149 80.7561L85.757 87.1697L82.4807 87.1457L79.114 80.7327L82.3149 80.7561ZM86.0497 73.1337L89.374 73.158L92.5307 79.2268L92.6678 79.2278L95.9129 73.2058L99.2372 73.2301L94.0508 82.2676L94.0145 87.23L91.0672 87.2085L91.1035 82.2461L86.0497 73.1337ZM109.529 73.3053L112.497 73.327L112.43 82.4431C112.422 83.4666 112.171 84.3604 111.677 85.1245C111.187 85.8887 110.504 86.4823 109.628 86.9055C108.752 87.324 107.734 87.5291 106.573 87.5206C105.408 87.5121 104.391 87.2922 103.521 86.8608C102.651 86.4249 101.977 85.8214 101.498 85.0502C101.02 84.2789 100.784 83.3816 100.792 82.358L100.858 73.242L103.826 73.2637L103.761 82.1261C103.757 82.6607 103.87 83.1368 104.1 83.5543C104.335 83.9719 104.666 84.301 105.094 84.5418C105.522 84.7825 106.021 84.905 106.592 84.9092C107.168 84.9134 107.669 84.7982 108.096 84.5637C108.527 84.3292 108.861 84.005 109.097 83.5908C109.338 83.1768 109.46 82.7024 109.464 82.1678L109.529 73.3053Z" fill="white"/>
<path d="M118.411 79.8786L118.422 78.4429L125.965 78.4981L125.954 79.9338L123.032 79.9124L122.974 87.931L121.275 87.9186L121.333 79.9L118.411 79.8786ZM129.386 88.1164C128.675 88.1112 128.062 87.959 127.547 87.6597C127.035 87.3575 126.643 86.9329 126.37 86.3862C126.097 85.8363 125.963 85.1906 125.969 84.4489C125.974 83.7195 126.117 83.0804 126.398 82.5315C126.682 81.9796 127.076 81.5516 127.58 81.2475C128.084 80.9403 128.675 80.7892 129.352 80.7942C129.789 80.7974 130.201 80.8712 130.587 81.0156C130.977 81.1569 131.32 81.3749 131.617 81.6694C131.916 81.964 132.15 82.3381 132.319 82.7918C132.488 83.2424 132.571 83.7785 132.566 84.4002L132.562 84.9126L126.75 84.8701L126.759 83.7437L130.969 83.7745C130.968 83.4544 130.901 83.1692 130.767 82.9189C130.634 82.6656 130.446 82.4657 130.204 82.3193C129.965 82.1729 129.685 82.0985 129.365 82.0962C129.024 82.0937 128.723 82.1746 128.463 82.3389C128.204 82.5001 128 82.714 127.854 82.9807C127.71 83.2444 127.636 83.5347 127.63 83.8516L127.623 84.8349C127.62 85.2473 127.693 85.6018 127.842 85.8983C127.99 86.1918 128.2 86.418 128.469 86.577C128.739 86.7328 129.055 86.8121 129.419 86.8147C129.662 86.8165 129.882 86.7843 130.079 86.718C130.277 86.6486 130.448 86.5468 130.594 86.4124C130.74 86.2781 130.85 86.1112 130.926 85.9116L132.485 86.0985C132.383 86.5101 132.193 86.8689 131.913 87.1746C131.637 87.4773 131.285 87.7117 130.856 87.8778C130.427 88.0409 129.937 88.1204 129.386 88.1164ZM137.046 88.1723C136.338 88.1672 135.731 88.0073 135.226 87.6928C134.723 87.3782 134.337 86.9461 134.067 86.3963C133.8 85.8434 133.669 85.2084 133.675 84.4914C133.68 83.7712 133.823 83.1367 134.104 82.5878C134.385 82.0359 134.779 81.6079 135.286 81.3038C135.796 80.9967 136.397 80.8457 137.09 80.8507C137.665 80.8549 138.174 80.9648 138.616 81.1804C139.06 81.393 139.414 81.6926 139.675 82.0792C139.937 82.4627 140.085 82.9101 140.118 83.4212L138.521 83.4096C138.459 83.0675 138.307 82.7817 138.065 82.5522C137.827 82.3196 137.506 82.2018 137.103 82.1989C136.761 82.1964 136.461 82.2865 136.201 82.4693C135.941 82.649 135.738 82.9091 135.59 83.2496C135.446 83.5902 135.373 83.999 135.369 84.476C135.366 84.9592 135.433 85.3752 135.572 85.724C135.711 86.0697 135.908 86.3374 136.162 86.527C136.419 86.7135 136.722 86.8081 137.069 86.8106C137.316 86.8124 137.536 86.7679 137.731 86.677C137.928 86.583 138.094 86.4472 138.228 86.2697C138.361 86.0922 138.454 85.8759 138.505 85.6208L140.102 85.6325C140.058 86.1338 139.907 86.5774 139.649 86.9634C139.391 87.3462 139.041 87.6452 138.599 87.8605C138.157 88.0727 137.64 88.1767 137.046 88.1723ZM143.158 83.9236L143.128 88.0783L141.456 88.0661L141.525 78.6118L143.16 78.6237L143.134 82.1922L143.217 82.1928C143.386 81.7939 143.645 81.4803 143.995 81.2521C144.347 81.0207 144.794 80.907 145.336 80.911C145.828 80.9146 146.257 81.0208 146.622 81.2297C146.986 81.4386 147.267 81.7423 147.464 82.1407C147.665 82.5392 147.763 83.0247 147.758 83.5971L147.725 88.1119L146.054 88.0997L146.085 83.8434C146.089 83.3664 145.968 82.9946 145.724 82.7282C145.483 82.4586 145.142 82.3223 144.702 82.3191C144.407 82.3169 144.142 82.3796 143.907 82.5071C143.675 82.6316 143.492 82.8134 143.358 83.0525C143.227 83.2916 143.16 83.582 143.158 83.9236ZM151.13 83.9818L151.1 88.1366L149.429 88.1243L149.481 81.0336L151.078 81.0453L151.069 82.2502L151.152 82.2508C151.318 81.855 151.581 81.5414 151.939 81.3101C152.301 81.0789 152.747 80.9652 153.276 80.969C153.765 80.9726 154.191 81.0804 154.552 81.2923C154.917 81.5042 155.198 81.8095 155.395 82.2079C155.595 82.6064 155.692 83.0888 155.685 83.655L155.652 88.1698L153.981 88.1576L154.012 83.9013C154.015 83.4274 153.895 83.0556 153.65 82.7861C153.409 82.5166 153.073 82.3802 152.642 82.3771C152.35 82.3749 152.09 82.4377 151.861 82.5653C151.635 82.6898 151.457 82.8716 151.326 83.1107C151.198 83.3499 151.133 83.6402 151.13 83.9818ZM160.442 88.3433C159.75 88.3383 159.151 88.1816 158.645 87.8732C158.14 87.5648 157.749 87.1356 157.473 86.5858C157.2 86.036 157.066 85.3948 157.072 84.6624C157.077 83.9299 157.22 83.2892 157.501 82.7404C157.785 82.1915 158.182 81.7666 158.692 81.4657C159.202 81.1647 159.803 81.0167 160.496 81.0218C161.188 81.0269 161.787 81.1836 162.293 81.492C162.799 81.8004 163.188 82.231 163.461 82.7839C163.737 83.3369 163.872 83.9796 163.867 84.712C163.861 85.4445 163.717 86.0836 163.433 86.6294C163.152 87.1751 162.756 87.5985 162.246 87.8995C161.736 88.2004 161.135 88.3484 160.442 88.3433ZM160.461 87.0047C160.837 87.0074 161.152 86.9066 161.405 86.7023C161.659 86.4948 161.849 86.2161 161.975 85.8662C162.104 85.5163 162.169 85.1259 162.173 84.695C162.176 84.2611 162.116 83.8682 161.992 83.5165C161.871 83.1616 161.686 82.8787 161.435 82.6676C161.184 82.4564 160.871 82.3495 160.495 82.3468C160.111 82.344 159.79 82.4462 159.533 82.6537C159.279 82.8611 159.088 83.1413 158.959 83.4943C158.833 83.8442 158.769 84.2362 158.766 84.6701C158.763 85.101 158.821 85.4923 158.942 85.844C159.065 86.1958 159.253 86.4772 159.504 86.6884C159.757 86.8964 160.077 87.0019 160.461 87.0047ZM167 78.798L166.931 88.2523L165.259 88.24L165.329 78.7858L167 78.798ZM171.741 88.4259C171.049 88.4209 170.449 88.2641 169.944 87.9557C169.438 87.6473 169.048 87.2182 168.771 86.6684C168.499 86.1185 168.365 85.4774 168.37 84.7449C168.375 84.0125 168.519 83.3718 168.8 82.8229C169.084 82.2741 169.481 81.8492 169.991 81.5482C170.501 81.2473 171.102 81.0993 171.794 81.1044C172.487 81.1094 173.086 81.2662 173.592 81.5746C174.097 81.8829 174.486 82.3136 174.759 82.8665C175.035 83.4194 175.171 84.0621 175.165 84.7946C175.16 85.5271 175.015 86.1662 174.731 86.7119C174.45 87.2577 174.055 87.6811 173.545 87.9821C173.035 88.283 172.433 88.431 171.741 88.4259ZM171.76 87.0872C172.135 87.09 172.45 86.9892 172.704 86.7848C172.958 86.5774 173.148 86.2987 173.273 85.9488C173.402 85.5988 173.468 85.2085 173.471 84.7776C173.474 84.3437 173.414 83.9508 173.29 83.599C173.17 83.2442 172.984 82.9613 172.733 82.7501C172.483 82.539 172.169 82.4321 171.794 82.4293C171.409 82.4265 171.088 82.5288 170.832 82.7362C170.578 82.9437 170.386 83.2239 170.258 83.5769C170.132 83.9268 170.067 84.3188 170.064 84.7527C170.061 85.1836 170.12 85.5749 170.24 85.9266C170.364 86.2784 170.551 86.5598 170.802 86.7709C171.056 86.979 171.375 87.0844 171.76 87.0872ZM179.621 91.1519C179.021 91.1475 178.506 91.0622 178.077 90.8959C177.647 90.7328 177.302 90.5148 177.043 90.2421C176.783 89.9693 176.604 89.6679 176.504 89.3379L178.012 88.9842C178.079 89.1232 178.176 89.2608 178.304 89.3972C178.433 89.5366 178.606 89.6518 178.824 89.7426C179.045 89.8366 179.323 89.8848 179.658 89.8872C180.132 89.8907 180.525 89.7781 180.838 89.5496C181.15 89.3241 181.309 88.9498 181.312 88.4266L181.322 87.0833L181.239 87.0827C181.152 87.2544 181.024 87.4304 180.857 87.6108C180.692 87.7911 180.474 87.9419 180.202 88.063C179.934 88.1842 179.596 88.2433 179.19 88.2403C178.645 88.2363 178.152 88.105 177.711 87.8463C177.273 87.5846 176.925 87.1973 176.667 86.6845C176.412 86.1687 176.288 85.5245 176.293 84.7521C176.299 83.9734 176.433 83.3173 176.695 82.7837C176.961 82.247 177.316 81.8418 177.762 81.5681C178.207 81.2913 178.702 81.1549 179.246 81.1588C179.662 81.1619 180.003 81.2352 180.27 81.3787C180.54 81.5192 180.754 81.6885 180.912 81.8866C181.071 82.0816 181.191 82.2656 181.273 82.4386L181.365 82.4393L181.374 81.2667L183.022 81.2788L182.969 88.4849C182.965 89.0912 182.817 89.5918 182.524 89.9867C182.232 90.3815 181.834 90.6756 181.331 90.8689C180.828 91.0622 180.258 91.1566 179.621 91.1519ZM179.666 86.9327C180.02 86.9352 180.322 86.8513 180.573 86.6808C180.823 86.5102 181.014 86.2639 181.146 85.9417C181.277 85.6195 181.345 85.2322 181.348 84.7798C181.351 84.3335 181.29 83.9422 181.163 83.6058C181.039 83.2694 180.853 83.008 180.605 82.8215C180.361 82.632 180.058 82.5359 179.698 82.5333C179.326 82.5305 179.014 82.6252 178.763 82.8173C178.513 83.0094 178.323 83.2742 178.194 83.6118C178.066 83.9463 178 84.3275 177.997 84.7553C177.994 85.1892 178.054 85.5697 178.178 85.8969C178.305 86.221 178.492 86.4747 178.74 86.6581C178.991 86.8385 179.3 86.93 179.666 86.9327ZM184.683 88.382L184.735 81.2913L186.406 81.3035L186.354 88.3942L184.683 88.382ZM185.582 80.2911C185.317 80.2891 185.09 80.1997 184.901 80.0229C184.711 79.843 184.617 79.6284 184.619 79.3792C184.621 79.1268 184.718 78.9136 184.91 78.7396C185.102 78.5625 185.331 78.4749 185.595 78.4768C185.863 78.4788 186.09 78.5697 186.277 78.7496C186.466 78.9264 186.56 79.141 186.558 79.3933C186.556 79.6426 186.459 79.8558 186.267 80.0329C186.078 80.207 185.85 80.293 185.582 80.2911ZM191.21 88.5682C190.5 88.563 189.887 88.4108 189.372 88.1116C188.86 87.8093 188.468 87.3848 188.195 86.838C187.922 86.2882 187.788 85.6424 187.793 84.9007C187.799 84.1714 187.942 83.5322 188.223 82.9834C188.507 82.4315 188.901 82.0034 189.405 81.6994C189.909 81.3922 190.499 81.2411 191.176 81.246C191.613 81.2492 192.025 81.323 192.412 81.4674C192.802 81.6088 193.145 81.8267 193.441 82.1213C193.741 82.4158 193.975 82.79 194.144 83.2436C194.313 83.6942 194.395 84.2303 194.391 84.852L194.387 85.3644L188.575 85.3219L188.583 84.1956L192.793 84.2263C192.793 83.9062 192.725 83.621 192.592 83.3708C192.458 83.1174 192.27 82.9175 192.028 82.7711C191.789 82.6247 191.51 82.5503 191.19 82.548C190.848 82.5455 190.548 82.6264 190.288 82.7907C190.028 82.9519 189.825 83.1659 189.678 83.4326C189.535 83.6962 189.46 83.9865 189.455 84.3035L189.448 85.2868C189.445 85.6992 189.518 86.0536 189.666 86.3502C189.815 86.6437 190.024 86.8699 190.294 87.0288C190.563 87.1847 190.88 87.2639 191.243 87.2666C191.486 87.2683 191.706 87.2361 191.904 87.1698C192.101 87.1005 192.273 86.9986 192.419 86.8643C192.564 86.7299 192.675 86.563 192.75 86.3635L194.309 86.5503C194.208 86.962 194.017 87.3207 193.738 87.6264C193.462 87.9291 193.109 88.1635 192.68 88.3297C192.251 88.4927 191.761 88.5722 191.21 88.5682ZM201.421 83.2876L199.896 83.4426C199.854 83.2884 199.78 83.1432 199.673 83.007C199.569 82.8709 199.428 82.7606 199.251 82.6762C199.073 82.5918 198.855 82.5486 198.596 82.5467C198.248 82.5442 197.955 82.6175 197.717 82.7665C197.482 82.9156 197.365 83.1102 197.367 83.3503C197.362 83.5564 197.436 83.7247 197.589 83.8551C197.745 83.9855 198.003 84.0936 198.362 84.1793L199.57 84.4467C200.24 84.5962 200.737 84.8291 201.061 85.1454C201.388 85.4617 201.551 85.8738 201.55 86.3816C201.544 86.8279 201.41 87.2208 201.149 87.5606C200.891 87.8972 200.534 88.1593 200.077 88.3468C199.62 88.5343 199.096 88.6258 198.505 88.6215C197.638 88.6152 196.94 88.4285 196.414 88.0615C195.887 87.6914 195.575 87.1797 195.478 86.5265L197.109 86.3815C197.181 86.7021 197.336 86.9448 197.575 87.1097C197.814 87.2746 198.125 87.3584 198.51 87.3612C198.907 87.3641 199.226 87.2849 199.467 87.1235C199.712 86.9622 199.835 86.7615 199.837 86.5215C199.838 86.3183 199.761 86.15 199.605 86.0166C199.452 85.8831 199.213 85.7798 198.887 85.7066L197.679 85.4439C197 85.2973 196.499 85.0552 196.175 84.7173C195.851 84.3764 195.693 83.9474 195.7 83.4304C195.7 82.9934 195.821 82.6157 196.063 82.2974C196.309 81.976 196.648 81.7292 197.08 81.5569C197.515 81.3816 198.016 81.296 198.582 81.3002C199.413 81.3062 200.066 81.488 200.54 81.8454C201.018 82.2028 201.311 82.6835 201.421 83.2876Z" fill="white"/>
<defs>
<clipPath id="clip0_117_24250">
<rect width="59" height="44" fill="white" transform="translate(0 58)"/>
</clipPath>
</defs>
</svg>
