<svg width="438" height="334" viewBox="0 0 438 334" fill="none" xmlns="http://www.w3.org/2000/svg">
<g clip-path="url(#clip0_552_81146)">
<path d="M106.144 222.946L0.785379 222.176L57.7274 112.83" fill="#CC0202"/>
<path d="M163.928 106.484L57.6228 112.845L106.15 222.961" fill="#AD0000"/>
<path d="M115.592 0.825841L57.6255 112.844L163.931 106.483" fill="#C93535"/>
<path d="M163.925 106.503L114.692 0.838867L214.687 1.56968" fill="#EC2027"/>
<path d="M262.689 114.337L163.938 105.584L214.694 1.54408" fill="#F70B0B"/>
<path d="M262.681 114.346L163.929 105.593L204.097 211.933" fill="#EB2329"/>
<path d="M260.252 328.681L214.21 215.77L316.462 222.278" fill="#AD0000"/>
<path d="M214.712 214.889L153.762 321.906L260.695 328.712" fill="#CC0202"/>
<path d="M213.991 215.748L316.463 222.27L271.979 113.029L213.991 215.748Z" fill="#C93535"/>
<path d="M379.306 110.38L271.805 112.481L314.729 225.194" fill="#EC2027"/>
<path d="M272.653 113.075L378.37 110.861L336.833 4.49309L272.653 113.075Z" fill="#F70B0B"/>
<path d="M335.935 4.44629L378.251 112.654L435.741 10.7986L335.935 4.44629Z" fill="#EB2329"/>
</g>
<defs>
<clipPath id="clip0_552_81146">
<rect width="435.51" height="330.511" fill="white" transform="translate(2.41553) rotate(0.418737)"/>
</clipPath>
</defs>
</svg>
