<svg width="206" height="202" viewBox="0 0 206 202" fill="none" xmlns="http://www.w3.org/2000/svg">
<g filter="url(#filter0_dddd_1217_566)">
<g clip-path="url(#clip0_1217_566)">
<path d="M61.9951 80.163L25.6768 79.8977L45.3041 42.2051" fill="#004496"/>
<path d="M81.9118 40.0137L45.2686 42.2077L61.9953 80.1657" fill="#0050AA"/>
<path d="M65.2507 3.59375L45.2686 42.2075L81.9118 40.0135" fill="#005BBF"/>
<path d="M81.9102 40.0224L64.939 3.59668L99.4091 3.85007" fill="#007EFC"/>
<path d="M115.958 42.7239L81.917 39.707L99.4129 3.8418" fill="#005BBF"/>
<path d="M115.955 42.7268L81.9146 39.71L95.7616 76.3682" fill="#0050AA"/>
<path d="M99.4188 77.3848L78.4082 114.275L115.269 116.622" fill="#004496"/>
<path d="M156.214 41.3228L119.157 42.0472L133.952 80.9024" fill="#0072E8"/>
<path d="M99.2524 77.6821L134.495 79.9269L119.16 42.27L99.2524 77.6821Z" fill="#005BBF"/>
<path d="M119.393 42.2848L155.834 41.5216L141.516 4.85449L119.393 42.2848Z" fill="#005BBF"/>
<path d="M115.099 116.598L99.2275 77.6738L134.476 79.9186" fill="#0050AA"/>
<path d="M141.205 4.83984L155.791 42.1419L175.609 7.03093L141.205 4.83984Z" fill="#007EFC"/>
</g>
<path d="M23.3822 147.174L19.2213 147.143L25.6955 128.824L30.6994 128.861L36.8962 147.273L32.7353 147.242L28.2385 133.04L28.0951 133.039L23.3822 147.174ZM23.1749 139.953L33.0033 140.025L32.9811 143.056L23.1528 142.984L23.1749 139.953ZM39.1067 147.289L39.2409 128.923L46.4866 128.976C47.8736 128.986 49.0554 129.243 50.0323 129.747C51.0151 130.244 51.7603 130.946 52.2678 131.852C52.7814 132.753 53.0337 133.81 53.0249 135.024C53.0159 136.243 52.7452 137.29 52.2127 138.165C51.6802 139.034 50.9131 139.698 49.9113 140.157C48.9155 140.617 47.7122 140.841 46.3013 140.831L41.4499 140.795L41.4727 137.674L45.6964 137.705C46.4377 137.711 47.0542 137.614 47.5459 137.414C48.0376 137.214 48.4045 136.912 48.6466 136.507C48.8947 136.102 49.021 135.598 49.0254 134.994C49.0298 134.385 48.911 133.87 48.669 133.449C48.4329 133.029 48.0676 132.71 47.5729 132.491C47.0843 132.266 46.4664 132.151 45.7191 132.145L43.1006 132.126L42.9896 147.317L39.1067 147.289ZM49.0858 139.004L53.5891 147.395L49.3027 147.363L44.8979 138.973L49.0858 139.004ZM53.9722 129.031L58.3214 129.063L62.4514 137.003L62.6307 137.004L66.8763 129.125L71.2256 129.157L64.4401 140.981L64.3926 147.474L60.5366 147.445L60.5841 140.953L53.9722 129.031ZM84.6902 129.256L88.5731 129.284L88.4859 141.211C88.4761 142.55 88.1477 143.719 87.5007 144.719C86.8597 145.719 85.9662 146.495 84.8202 147.049C83.6743 147.596 82.3421 147.865 80.8236 147.854C79.2991 147.843 77.968 147.555 76.8302 146.99C75.6925 146.42 74.8104 145.631 74.184 144.622C73.5577 143.613 73.2494 142.438 73.2592 141.099L73.3464 129.173L77.2293 129.201L77.1445 140.796C77.1394 141.495 77.2873 142.118 77.5882 142.664C77.8951 143.211 78.3284 143.641 78.8881 143.956C79.4478 144.271 80.1013 144.432 80.8486 144.437C81.6018 144.443 82.2576 144.292 82.8159 143.985C83.3801 143.678 83.8166 143.254 84.1255 142.712C84.4404 142.171 84.6003 141.55 84.6054 140.85L84.6902 129.256Z" fill="white"/>
<path d="M93.6561 136.461L93.6689 134.718L102.827 134.785L102.814 136.528L99.2664 136.502L99.1953 146.238L97.1327 146.222L97.2039 136.487L93.6561 136.461ZM106.98 146.463C106.117 146.456 105.373 146.272 104.748 145.908C104.127 145.541 103.65 145.026 103.319 144.362C102.987 143.694 102.825 142.91 102.832 142.01C102.838 141.124 103.012 140.348 103.353 139.682C103.698 139.012 104.176 138.492 104.788 138.123C105.4 137.75 106.117 137.567 106.939 137.573C107.469 137.577 107.969 137.666 108.439 137.842C108.912 138.013 109.329 138.278 109.689 138.635C110.052 138.993 110.337 139.447 110.542 139.998C110.747 140.545 110.847 141.196 110.841 141.951L110.837 142.573L103.781 142.521L103.791 141.154L108.902 141.191C108.901 140.803 108.82 140.456 108.657 140.152C108.495 139.845 108.267 139.602 107.973 139.424C107.683 139.247 107.344 139.156 106.955 139.154C106.541 139.151 106.175 139.249 105.86 139.448C105.545 139.644 105.298 139.904 105.12 140.228C104.946 140.548 104.856 140.9 104.849 141.285L104.84 142.479C104.837 142.979 104.925 143.41 105.106 143.77C105.286 144.126 105.54 144.401 105.867 144.594C106.195 144.783 106.579 144.879 107.02 144.882C107.315 144.884 107.583 144.845 107.822 144.765C108.062 144.681 108.27 144.557 108.447 144.394C108.624 144.231 108.758 144.028 108.85 143.786L110.742 144.013C110.619 144.513 110.388 144.948 110.049 145.319C109.714 145.687 109.286 145.971 108.765 146.173C108.244 146.371 107.649 146.468 106.98 146.463ZM116.28 146.531C115.42 146.524 114.684 146.33 114.07 145.948C113.46 145.566 112.991 145.042 112.664 144.374C112.34 143.703 112.181 142.932 112.187 142.062C112.194 141.187 112.367 140.417 112.709 139.751C113.05 139.08 113.528 138.561 114.144 138.192C114.763 137.819 115.493 137.635 116.334 137.642C117.032 137.647 117.65 137.78 118.186 138.042C118.726 138.3 119.155 138.664 119.473 139.133C119.791 139.599 119.97 140.142 120.01 140.762L118.071 140.748C117.995 140.333 117.811 139.986 117.518 139.707C117.229 139.425 116.839 139.282 116.35 139.278C115.935 139.275 115.57 139.385 115.254 139.607C114.939 139.825 114.692 140.141 114.513 140.554C114.338 140.967 114.249 141.464 114.244 142.043C114.24 142.63 114.322 143.135 114.491 143.558C114.66 143.978 114.899 144.303 115.207 144.533C115.519 144.759 115.887 144.874 116.309 144.877C116.608 144.88 116.875 144.825 117.111 144.715C117.351 144.601 117.553 144.436 117.715 144.221C117.877 144.005 117.989 143.742 118.051 143.433L119.99 143.447C119.937 144.056 119.754 144.594 119.441 145.063C119.127 145.528 118.702 145.891 118.166 146.152C117.63 146.41 117.001 146.536 116.28 146.531ZM123.701 141.372L123.664 146.416L121.635 146.402L121.719 134.923L123.703 134.938L123.671 139.27L123.772 139.271C123.977 138.787 124.292 138.406 124.716 138.129C125.144 137.848 125.687 137.71 126.345 137.715C126.943 137.719 127.463 137.848 127.906 138.102C128.349 138.355 128.69 138.724 128.929 139.208C129.172 139.691 129.291 140.281 129.286 140.976L129.246 146.457L127.217 146.442L127.255 141.275C127.259 140.696 127.113 140.244 126.816 139.921C126.524 139.594 126.11 139.428 125.576 139.424C125.217 139.422 124.895 139.498 124.61 139.653C124.329 139.804 124.107 140.024 123.944 140.315C123.785 140.605 123.704 140.957 123.701 141.372ZM133.38 141.443L133.343 146.487L131.314 146.472L131.377 137.864L133.316 137.878L133.306 139.341L133.406 139.341C133.608 138.861 133.927 138.48 134.362 138.199C134.801 137.918 135.342 137.78 135.985 137.785C136.579 137.789 137.096 137.92 137.535 138.178C137.977 138.435 138.318 138.805 138.558 139.289C138.801 139.773 138.918 140.359 138.909 141.046L138.869 146.528L136.84 146.513L136.878 141.345C136.882 140.77 136.736 140.318 136.44 139.991C136.147 139.664 135.739 139.498 135.216 139.495C134.861 139.492 134.544 139.568 134.267 139.723C133.993 139.874 133.777 140.095 133.617 140.385C133.462 140.676 133.383 141.028 133.38 141.443ZM144.686 146.738C143.845 146.732 143.118 146.542 142.504 146.167C141.89 145.793 141.416 145.272 141.08 144.604C140.749 143.937 140.587 143.158 140.593 142.269C140.6 141.38 140.773 140.602 141.115 139.936C141.459 139.269 141.942 138.753 142.561 138.388C143.18 138.023 143.91 137.843 144.751 137.849C145.591 137.855 146.319 138.046 146.932 138.42C147.546 138.794 148.019 139.317 148.35 139.989C148.685 140.66 148.85 141.44 148.843 142.329C148.837 143.219 148.661 143.995 148.316 144.657C147.975 145.32 147.495 145.834 146.876 146.199C146.256 146.565 145.526 146.744 144.686 146.738ZM144.709 145.113C145.165 145.116 145.547 144.994 145.855 144.746C146.163 144.494 146.393 144.156 146.546 143.731C146.702 143.306 146.782 142.832 146.786 142.309C146.79 141.782 146.717 141.305 146.567 140.878C146.421 140.447 146.195 140.104 145.891 139.847C145.586 139.591 145.206 139.461 144.75 139.458C144.283 139.454 143.893 139.579 143.582 139.83C143.273 140.082 143.041 140.422 142.885 140.851C142.732 141.276 142.654 141.752 142.65 142.279C142.646 142.802 142.717 143.277 142.864 143.704C143.014 144.131 143.241 144.473 143.546 144.729C143.854 144.981 144.242 145.11 144.709 145.113ZM152.647 135.149L152.563 146.628L150.534 146.613L150.618 135.134L152.647 135.149ZM158.403 146.838C157.562 146.832 156.835 146.642 156.221 146.268C155.607 145.893 155.133 145.372 154.798 144.705C154.466 144.037 154.304 143.259 154.31 142.369C154.317 141.48 154.491 140.702 154.832 140.036C155.177 139.37 155.659 138.854 156.278 138.488C156.897 138.123 157.627 137.943 158.468 137.949C159.309 137.956 160.036 138.146 160.65 138.52C161.264 138.895 161.736 139.418 162.068 140.089C162.403 140.76 162.567 141.54 162.561 142.43C162.554 143.319 162.378 144.095 162.033 144.758C161.692 145.42 161.212 145.934 160.593 146.3C159.974 146.665 159.244 146.845 158.403 146.838ZM158.426 145.213C158.882 145.217 159.264 145.094 159.572 144.846C159.88 144.594 160.111 144.256 160.263 143.831C160.42 143.406 160.5 142.932 160.504 142.409C160.508 141.882 160.434 141.405 160.284 140.978C160.138 140.547 159.913 140.204 159.608 139.948C159.304 139.691 158.923 139.561 158.467 139.558C158 139.555 157.611 139.679 157.299 139.931C156.991 140.183 156.758 140.523 156.602 140.951C156.449 141.376 156.371 141.852 156.367 142.379C156.364 142.902 156.435 143.377 156.581 143.804C156.731 144.231 156.959 144.573 157.263 144.829C157.571 145.082 157.959 145.21 158.426 145.213ZM167.97 150.148C167.242 150.143 166.617 150.039 166.095 149.837C165.573 149.639 165.155 149.375 164.84 149.043C164.524 148.712 164.307 148.346 164.186 147.946L166.017 147.516C166.098 147.685 166.216 147.852 166.372 148.018C166.527 148.187 166.737 148.327 167.002 148.437C167.27 148.551 167.608 148.61 168.015 148.613C168.591 148.617 169.068 148.48 169.447 148.203C169.827 147.929 170.019 147.474 170.024 146.839L170.035 145.208L169.935 145.208C169.828 145.416 169.674 145.63 169.47 145.849C169.271 146.068 169.006 146.251 168.676 146.398C168.35 146.545 167.94 146.617 167.447 146.613C166.786 146.608 166.187 146.449 165.651 146.135C165.119 145.817 164.697 145.347 164.384 144.724C164.074 144.098 163.923 143.316 163.93 142.378C163.937 141.433 164.1 140.636 164.418 139.988C164.741 139.337 165.172 138.845 165.713 138.512C166.253 138.176 166.854 138.011 167.515 138.016C168.02 138.019 168.434 138.108 168.758 138.282C169.085 138.453 169.345 138.659 169.538 138.899C169.73 139.136 169.876 139.359 169.976 139.569L170.088 139.57L170.098 138.147L172.099 138.161L172.035 146.91C172.03 147.646 171.85 148.254 171.495 148.733C171.14 149.213 170.657 149.57 170.047 149.804C169.436 150.039 168.744 150.154 167.97 150.148ZM168.025 145.025C168.454 145.029 168.821 144.927 169.125 144.72C169.43 144.513 169.662 144.214 169.821 143.822C169.981 143.431 170.063 142.961 170.067 142.412C170.071 141.87 169.996 141.395 169.842 140.986C169.692 140.578 169.466 140.261 169.165 140.034C168.868 139.804 168.501 139.687 168.064 139.684C167.612 139.681 167.233 139.796 166.929 140.029C166.625 140.262 166.394 140.584 166.238 140.994C166.082 141.4 166.002 141.863 165.998 142.382C165.994 142.909 166.067 143.371 166.218 143.768C166.372 144.161 166.599 144.47 166.9 144.692C167.205 144.911 167.58 145.022 168.025 145.025ZM174.116 146.785L174.178 138.176L176.207 138.191L176.144 146.8L174.116 146.785ZM175.207 136.962C174.886 136.96 174.61 136.851 174.38 136.636C174.15 136.418 174.036 136.158 174.038 135.855C174.041 135.549 174.158 135.29 174.392 135.078C174.625 134.863 174.902 134.757 175.224 134.759C175.549 134.762 175.824 134.872 176.051 135.091C176.281 135.305 176.395 135.566 176.392 135.872C176.39 136.175 176.273 136.434 176.039 136.649C175.81 136.86 175.533 136.964 175.207 136.962ZM182.041 147.011C181.178 147.005 180.433 146.82 179.808 146.457C179.187 146.09 178.711 145.574 178.379 144.911C178.048 144.243 177.885 143.459 177.892 142.559C177.898 141.673 178.072 140.897 178.413 140.231C178.758 139.561 179.237 139.041 179.848 138.672C180.46 138.299 181.177 138.115 181.999 138.121C182.53 138.125 183.03 138.215 183.499 138.39C183.973 138.562 184.389 138.826 184.749 139.184C185.113 139.542 185.397 139.996 185.602 140.547C185.808 141.094 185.907 141.745 185.902 142.499L185.897 143.122L178.841 143.07L178.851 141.702L183.962 141.74C183.962 141.351 183.88 141.005 183.718 140.701C183.556 140.393 183.328 140.151 183.034 139.973C182.744 139.795 182.404 139.705 182.016 139.702C181.601 139.699 181.236 139.797 180.921 139.997C180.605 140.193 180.359 140.452 180.181 140.776C180.006 141.096 179.916 141.449 179.909 141.833L179.901 143.027C179.897 143.528 179.985 143.958 180.166 144.318C180.346 144.675 180.6 144.949 180.928 145.142C181.255 145.331 181.639 145.428 182.08 145.431C182.375 145.433 182.643 145.394 182.883 145.313C183.122 145.229 183.331 145.106 183.508 144.942C183.684 144.779 183.818 144.577 183.91 144.334L185.803 144.561C185.679 145.061 185.448 145.497 185.109 145.868C184.774 146.235 184.346 146.52 183.825 146.722C183.304 146.92 182.71 147.016 182.041 147.011ZM194.437 140.6L192.586 140.788C192.535 140.601 192.444 140.425 192.315 140.259C192.189 140.094 192.018 139.96 191.802 139.858C191.586 139.755 191.321 139.703 191.007 139.701C190.585 139.698 190.23 139.786 189.941 139.967C189.655 140.148 189.513 140.385 189.515 140.676C189.509 140.926 189.599 141.131 189.785 141.289C189.975 141.447 190.287 141.579 190.724 141.683L192.19 142.007C193.003 142.189 193.607 142.472 194 142.856C194.397 143.24 194.595 143.74 194.594 144.357C194.586 144.898 194.424 145.375 194.107 145.788C193.794 146.197 193.36 146.515 192.806 146.742C192.251 146.97 191.615 147.081 190.897 147.076C189.844 147.068 188.997 146.842 188.358 146.396C187.718 145.947 187.34 145.325 187.222 144.532L189.202 144.356C189.289 144.746 189.477 145.04 189.767 145.24C190.057 145.441 190.436 145.542 190.903 145.546C191.385 145.549 191.772 145.453 192.065 145.257C192.362 145.061 192.511 144.818 192.514 144.526C192.515 144.28 192.422 144.075 192.232 143.913C192.046 143.751 191.756 143.626 191.361 143.537L189.894 143.218C189.07 143.04 188.461 142.746 188.068 142.336C187.675 141.922 187.483 141.401 187.491 140.773C187.491 140.243 187.638 139.784 187.933 139.398C188.231 139.008 188.642 138.708 189.167 138.499C189.695 138.286 190.303 138.182 190.99 138.187C191.999 138.195 192.792 138.415 193.368 138.849C193.947 139.283 194.304 139.867 194.437 140.6Z" fill="white"/>
</g>
<defs>
<filter id="filter0_dddd_1217_566" x="0.490951" y="0.632636" width="204.874" height="200.544" filterUnits="userSpaceOnUse" color-interpolation-filters="sRGB">
<feFlood flood-opacity="0" result="BackgroundImageFix"/>
<feColorMatrix in="SourceAlpha" type="matrix" values="0 0 0 0 0 0 0 0 0 0 0 0 0 0 0 0 0 0 127 0" result="hardAlpha"/>
<feOffset dy="2.67547"/>
<feGaussianBlur stdDeviation="2.67547"/>
<feColorMatrix type="matrix" values="0 0 0 0 0.25098 0 0 0 0 0.25098 0 0 0 0 0.25098 0 0 0 0.1 0"/>
<feBlend mode="normal" in2="BackgroundImageFix" result="effect1_dropShadow_1217_566"/>
<feColorMatrix in="SourceAlpha" type="matrix" values="0 0 0 0 0 0 0 0 0 0 0 0 0 0 0 0 0 0 127 0" result="hardAlpha"/>
<feOffset dx="-1.33773" dy="9.36414"/>
<feGaussianBlur stdDeviation="4.68207"/>
<feColorMatrix type="matrix" values="0 0 0 0 0.25098 0 0 0 0 0.25098 0 0 0 0 0.25098 0 0 0 0.09 0"/>
<feBlend mode="normal" in2="effect1_dropShadow_1217_566" result="effect2_dropShadow_1217_566"/>
<feColorMatrix in="SourceAlpha" type="matrix" values="0 0 0 0 0 0 0 0 0 0 0 0 0 0 0 0 0 0 127 0" result="hardAlpha"/>
<feOffset dx="-2.67547" dy="20.066"/>
<feGaussianBlur stdDeviation="6.01981"/>
<feColorMatrix type="matrix" values="0 0 0 0 0.25098 0 0 0 0 0.25098 0 0 0 0 0.25098 0 0 0 0.05 0"/>
<feBlend mode="normal" in2="effect2_dropShadow_1217_566" result="effect3_dropShadow_1217_566"/>
<feColorMatrix in="SourceAlpha" type="matrix" values="0 0 0 0 0 0 0 0 0 0 0 0 0 0 0 0 0 0 127 0" result="hardAlpha"/>
<feOffset dx="-4.0132" dy="36.1188"/>
<feGaussianBlur stdDeviation="7.35754"/>
<feColorMatrix type="matrix" values="0 0 0 0 0.25098 0 0 0 0 0.25098 0 0 0 0 0.25098 0 0 0 0.01 0"/>
<feBlend mode="normal" in2="effect3_dropShadow_1217_566" result="effect4_dropShadow_1217_566"/>
<feBlend mode="normal" in="SourceGraphic" in2="effect4_dropShadow_1217_566" result="shape"/>
</filter>
<clipPath id="clip0_1217_566">
<rect width="150.952" height="115.028" fill="white" transform="translate(25.4033 3.30811)"/>
</clipPath>
</defs>
</svg>
