<svg width="694" height="694" viewBox="0 0 694 694" fill="none" xmlns="http://www.w3.org/2000/svg">
<g opacity="0.18" clip-path="url(#clip0_408_81356)">
<path d="M694 347C694 155.359 538.641 0 347 0C155.359 0 0 155.359 0 347C0 509.729 112.039 646.281 263.179 683.784V453.043H191.627V347H263.179V301.307C263.179 183.202 316.631 128.459 432.584 128.459C454.57 128.459 492.504 132.776 508.022 137.079V233.198C499.833 232.337 485.606 231.907 467.936 231.907C411.042 231.907 389.056 253.463 389.056 309.496V347H502.4L482.927 453.043H389.056V691.46C560.877 670.709 694.014 524.414 694.014 347H694Z" fill="#0866FF"/>
<path d="M482.913 453.045L502.387 347.002H389.043V309.498C389.043 253.464 411.028 231.909 467.923 231.909C485.592 231.909 499.819 232.339 508.008 233.199V137.08C492.49 132.764 454.556 128.461 432.57 128.461C316.617 128.461 263.165 183.204 263.165 301.309V347.002H191.613V453.045H263.165V683.786C290.009 690.448 318.088 694.002 346.986 694.002C361.213 694.002 375.246 693.127 389.029 691.461V453.045H482.899H482.913Z" fill="white"/>
</g>
<defs>
<clipPath id="clip0_408_81356">
<rect width="694" height="694" fill="white"/>
</clipPath>
</defs>
</svg>
