<svg width="543" height="543" viewBox="0 0 543 543" fill="none" xmlns="http://www.w3.org/2000/svg">
<g opacity="0.16" clip-path="url(#clip0_408_81355)">
<path d="M532.185 139.947C529.115 128.395 523.065 117.852 514.64 109.373C506.215 100.894 495.711 94.776 484.179 91.6321C441.726 80.2168 272.039 80.2168 272.039 80.2168C272.039 80.2168 102.351 80.2168 59.8986 91.6321C48.3665 94.776 37.8624 100.894 29.4375 109.373C21.0125 117.852 14.9624 128.395 11.8925 139.947C0.53882 182.585 0.538818 271.501 0.538818 271.501C0.538818 271.501 0.53882 360.417 11.8925 403.055C14.9624 414.607 21.0125 425.15 29.4375 433.629C37.8624 442.108 48.3665 448.226 59.8986 451.37C102.351 462.785 272.039 462.785 272.039 462.785C272.039 462.785 441.726 462.785 484.179 451.37C495.711 448.226 506.215 442.108 514.64 433.629C523.065 425.15 529.115 414.607 532.185 403.055C543.539 360.417 543.539 271.501 543.539 271.501C543.539 271.501 543.539 182.585 532.185 139.947Z" fill="#FF0302"/>
<path d="M216.504 352.243V190.762L358.424 271.502L216.504 352.243Z" fill="#FEFEFE"/>
</g>
<defs>
<clipPath id="clip0_408_81355">
<rect width="543" height="543" fill="white"/>
</clipPath>
</defs>
</svg>
