<svg width="815" height="620" viewBox="0 0 815 620" fill="none" xmlns="http://www.w3.org/2000/svg">
<rect width="814.085" height="619.938" rx="20" fill="#9A0201"/>
<g clip-path="url(#clip0_552_81246)" filter="url(#filter0_ddddd_552_81246)">
<path d="M325.311 216.865L252.627 216.334L291.909 140.9" fill="#CC0202"/>
<path d="M365.174 136.522L291.837 140.91L325.315 216.876" fill="#AD0000"/>
<path d="M331.828 63.6319L291.839 140.91L365.175 136.521" fill="#C93535"/>
<path d="M365.172 136.536L331.208 63.6416L400.191 64.1458" fill="#EC2027"/>
<path d="M433.306 141.939L365.181 135.901L400.195 64.1271" fill="#F70B0B"/>
<path d="M433.3 141.947L365.175 135.908L392.885 209.269" fill="#EB2329"/>
<path d="M431.624 289.81L399.862 211.916L470.402 216.406" fill="#AD0000"/>
<path d="M400.208 211.308L358.16 285.135L431.93 289.83" fill="#CC0202"/>
<path d="M399.71 211.899L470.403 216.399L439.714 141.037L399.71 211.899Z" fill="#C93535"/>
<path d="M513.756 139.211L439.594 140.66L469.206 218.417" fill="#EC2027"/>
<path d="M440.18 141.07L513.11 139.542L484.455 66.1623L440.18 141.07Z" fill="#F70B0B"/>
<path d="M483.836 66.1299L513.028 140.779L552.689 70.5121L483.836 66.1299Z" fill="#EB2329"/>
</g>
<path d="M262.097 359.332L253.431 359.269L266.914 321.118L277.335 321.194L290.241 359.538L281.575 359.474L272.21 329.897L271.912 329.895L262.097 359.332ZM261.665 344.294L282.133 344.444L282.087 350.756L261.619 350.606L261.665 344.294ZM294.844 359.571L295.124 321.324L310.213 321.434C313.102 321.455 315.563 321.99 317.598 323.038C319.644 324.074 321.196 325.536 322.253 327.424C323.323 329.299 323.848 331.501 323.83 334.028C323.811 336.568 323.248 338.749 322.139 340.571C321.03 342.381 319.432 343.764 317.346 344.72C315.272 345.676 312.766 346.143 309.828 346.122L299.724 346.048L299.772 339.549L308.568 339.613C310.112 339.624 311.396 339.422 312.42 339.006C313.444 338.59 314.208 337.961 314.712 337.118C315.229 336.275 315.491 335.225 315.501 333.967C315.51 332.697 315.263 331.625 314.758 330.75C314.267 329.874 313.506 329.209 312.476 328.753C311.458 328.285 310.171 328.045 308.615 328.034L303.162 327.994L302.931 359.63L294.844 359.571ZM315.626 342.317L325.005 359.792L316.078 359.726L306.905 342.253L315.626 342.317ZM325.803 321.548L334.86 321.614L343.461 338.15L343.835 338.152L352.677 321.744L361.734 321.811L347.603 346.435L347.504 359.956L339.474 359.897L339.573 346.376L325.803 321.548ZM389.776 322.016L397.862 322.075L397.681 346.913C397.66 349.702 396.976 352.137 395.629 354.219C394.294 356.301 392.433 357.919 390.046 359.072C387.66 360.212 384.886 360.771 381.723 360.748C378.548 360.725 375.776 360.125 373.407 358.95C371.037 357.762 369.2 356.118 367.896 354.017C366.591 351.915 365.949 349.47 365.97 346.681L366.151 321.843L374.238 321.902L374.061 346.049C374.051 347.506 374.359 348.803 374.985 349.941C375.624 351.079 376.527 351.975 377.692 352.631C378.858 353.287 380.219 353.621 381.775 353.632C383.344 353.644 384.71 353.33 385.872 352.691C387.047 352.052 387.956 351.169 388.6 350.04C389.255 348.912 389.589 347.62 389.599 346.163L389.776 322.016Z" fill="white"/>
<path d="M414.661 357.971L410.039 357.938L418.629 334.095L423.975 334.134L432.227 358.1L427.605 358.066L421.359 339.017L421.173 339.016L414.661 357.971ZM414.881 348.6L427.487 348.692L427.462 352.17L414.856 352.078L414.881 348.6ZM442.461 358.525C440.672 358.512 439.138 358.108 437.859 357.312C436.589 356.517 435.613 355.424 434.93 354.034C434.256 352.636 433.925 351.031 433.938 349.218C433.951 347.397 434.313 345.792 435.024 344.405C435.734 343.009 436.731 341.927 438.012 341.158C439.302 340.382 440.822 340 442.573 340.013C444.028 340.023 445.314 340.301 446.431 340.846C447.555 341.384 448.449 342.141 449.111 343.119C449.773 344.088 450.146 345.219 450.23 346.512L446.191 346.482C446.034 345.617 445.65 344.895 445.04 344.314C444.437 343.726 443.626 343.429 442.607 343.421C441.743 343.415 440.983 343.643 440.326 344.105C439.669 344.559 439.154 345.217 438.782 346.078C438.418 346.939 438.231 347.973 438.222 349.179C438.213 350.401 438.385 351.452 438.736 352.334C439.088 353.208 439.585 353.885 440.227 354.365C440.877 354.836 441.642 355.075 442.521 355.082C443.144 355.086 443.701 354.974 444.193 354.744C444.693 354.506 445.112 354.163 445.45 353.714C445.788 353.265 446.021 352.718 446.15 352.073L450.189 352.103C450.079 353.371 449.697 354.492 449.044 355.468C448.391 356.436 447.506 357.192 446.389 357.736C445.272 358.273 443.963 358.536 442.461 358.525ZM458.77 358.656C457.634 358.647 456.612 358.438 455.705 358.026C454.805 357.607 454.094 356.995 453.57 356.19C453.055 355.384 452.801 354.394 452.81 353.219C452.817 352.208 453.01 351.373 453.389 350.714C453.767 350.055 454.281 349.53 454.929 349.138C455.578 348.745 456.308 348.451 457.119 348.255C457.937 348.051 458.783 347.905 459.655 347.818C460.706 347.717 461.559 347.626 462.213 347.545C462.867 347.456 463.343 347.32 463.64 347.135C463.945 346.943 464.099 346.644 464.102 346.24L464.103 346.17C464.109 345.29 463.853 344.608 463.335 344.121C462.818 343.635 462.068 343.388 461.088 343.381C460.053 343.374 459.23 343.593 458.62 344.04C458.018 344.487 457.609 345.017 457.395 345.63L453.453 345.041C453.773 343.954 454.293 343.048 455.014 342.321C455.735 341.587 456.615 341.041 457.653 340.683C458.69 340.317 459.835 340.139 461.088 340.148C461.952 340.154 462.811 340.262 463.666 340.47C464.52 340.679 465.3 341.019 466.004 341.491C466.709 341.955 467.273 342.586 467.695 343.383C468.125 344.18 468.335 345.173 468.327 346.364L468.239 358.363L464.177 358.333L464.195 355.87L464.055 355.869C463.795 356.366 463.429 356.83 462.959 357.262C462.497 357.687 461.915 358.029 461.212 358.288C460.518 358.54 459.704 358.662 458.77 358.656ZM459.89 355.559C460.738 355.565 461.475 355.403 462.1 355.073C462.725 354.735 463.207 354.287 463.545 353.73C463.892 353.172 464.067 352.562 464.072 351.901L464.088 349.788C463.955 349.896 463.728 349.996 463.409 350.087C463.097 350.178 462.746 350.257 462.356 350.324C461.967 350.391 461.581 350.451 461.199 350.502C460.818 350.554 460.487 350.598 460.206 350.635C459.575 350.716 459.01 350.852 458.511 351.043C458.011 351.234 457.616 351.503 457.326 351.852C457.035 352.192 456.888 352.634 456.884 353.179C456.878 353.957 457.158 354.547 457.723 354.948C458.289 355.349 459.011 355.552 459.89 355.559ZM479.138 358.758C477.73 358.748 476.472 358.376 475.365 357.645C474.257 356.913 473.386 355.856 472.75 354.474C472.114 353.092 471.803 351.417 471.818 349.448C471.832 347.456 472.171 345.777 472.835 344.413C473.506 343.04 474.405 342.008 475.531 341.316C476.656 340.616 477.908 340.271 479.285 340.281C480.336 340.289 481.198 340.474 481.872 340.837C482.547 341.192 483.081 341.62 483.474 342.121C483.867 342.614 484.171 343.079 484.386 343.516L484.561 343.518L484.626 334.577L488.863 334.608L488.689 358.512L484.533 358.482L484.554 355.657L484.297 355.656C484.076 356.09 483.758 356.55 483.342 357.038C482.926 357.517 482.378 357.925 481.698 358.263C481.019 358.6 480.166 358.765 479.138 358.758ZM480.343 355.3C481.238 355.306 482.002 355.071 482.636 354.593C483.27 354.107 483.753 353.43 484.086 352.561C484.42 351.692 484.59 350.677 484.599 349.518C484.607 348.358 484.451 347.35 484.131 346.491C483.818 345.633 483.348 344.964 482.721 344.485C482.102 344.006 481.337 343.763 480.427 343.756C479.485 343.749 478.698 343.989 478.064 344.474C477.43 344.96 476.95 345.633 476.625 346.495C476.3 347.356 476.133 348.343 476.125 349.456C476.117 350.576 476.269 351.578 476.581 352.459C476.902 353.333 477.375 354.025 478.002 354.536C478.636 355.038 479.417 355.293 480.343 355.3ZM501.126 358.954C499.328 358.94 497.778 358.556 496.477 357.799C495.183 357.035 494.191 355.961 493.5 354.579C492.81 353.189 492.472 351.556 492.486 349.681C492.499 347.836 492.861 346.22 493.572 344.833C494.29 343.437 495.286 342.355 496.56 341.586C497.834 340.809 499.327 340.427 501.039 340.44C502.144 340.448 503.186 340.635 504.163 341C505.149 341.357 506.017 341.908 506.766 342.653C507.523 343.398 508.116 344.344 508.543 345.491C508.97 346.63 509.178 347.985 509.167 349.557L509.157 350.853L494.462 350.746L494.483 347.898L505.128 347.975C505.126 347.166 504.956 346.445 504.618 345.812C504.281 345.172 503.806 344.666 503.194 344.296C502.59 343.926 501.883 343.738 501.073 343.732C500.21 343.726 499.45 343.93 498.793 344.345C498.136 344.753 497.622 345.294 497.252 345.968C496.889 346.635 496.701 347.369 496.687 348.17L496.669 350.657C496.661 351.699 496.845 352.596 497.221 353.345C497.597 354.087 498.126 354.659 498.808 355.061C499.49 355.455 500.29 355.656 501.208 355.662C501.823 355.667 502.38 355.585 502.879 355.418C503.378 355.242 503.812 354.985 504.18 354.645C504.549 354.306 504.828 353.883 505.018 353.379L508.96 353.851C508.704 354.892 508.222 355.799 507.516 356.572C506.818 357.338 505.927 357.93 504.842 358.35C503.757 358.763 502.519 358.964 501.126 358.954ZM512.675 358.688L512.806 340.759L516.845 340.789L516.822 343.835L517.032 343.837C517.413 342.812 518.038 342.015 518.906 341.446C519.774 340.869 520.807 340.584 522.005 340.593C523.219 340.602 524.24 340.905 525.069 341.503C525.905 342.092 526.49 342.894 526.825 343.908L527.012 343.91C527.416 342.917 528.091 342.128 529.037 341.543C529.991 340.951 531.117 340.66 532.417 340.669C534.067 340.681 535.409 341.212 536.444 342.263C537.479 343.313 537.989 344.838 537.975 346.838L537.887 358.872L533.65 358.841L533.733 347.461C533.741 346.348 533.451 345.533 532.864 345.015C532.276 344.489 531.554 344.223 530.698 344.217C529.679 344.209 528.879 344.523 528.299 345.156C527.726 345.783 527.436 346.601 527.429 347.613L527.347 358.795L523.203 358.765L523.288 347.209C523.294 346.283 523.02 345.542 522.463 344.985C521.915 344.429 521.193 344.147 520.299 344.141C519.692 344.136 519.138 344.288 518.638 344.596C518.137 344.895 517.737 345.324 517.438 345.882C517.138 346.433 516.985 347.078 516.98 347.817L516.9 358.719L512.675 358.688ZM544.109 365.641C543.533 365.637 543 365.586 542.511 365.489C542.029 365.4 541.644 365.296 541.357 365.177L542.362 361.893C542.975 362.076 543.523 362.166 544.006 362.162C544.488 362.158 544.913 362.009 545.281 361.716C545.657 361.431 545.975 360.951 546.237 360.275L546.606 359.309L540.238 340.96L544.721 340.993L548.754 354.562L548.94 354.564L553.183 341.054L557.677 341.087L550.351 361.134C550.01 362.081 549.56 362.891 549.003 363.564C548.445 364.245 547.765 364.761 546.961 365.113C546.164 365.473 545.214 365.649 544.109 365.641Z" fill="white"/>
<defs>
<filter id="filter0_ddddd_552_81246" x="205.085" y="55.0625" width="396.103" height="454.198" filterUnits="userSpaceOnUse" color-interpolation-filters="sRGB">
<feFlood flood-opacity="0" result="BackgroundImageFix"/>
<feColorMatrix in="SourceAlpha" type="matrix" values="0 0 0 0 0 0 0 0 0 0 0 0 0 0 0 0 0 0 127 0" result="hardAlpha"/>
<feOffset dy="7"/>
<feGaussianBlur stdDeviation="7.5"/>
<feColorMatrix type="matrix" values="0 0 0 0 0 0 0 0 0 0 0 0 0 0 0 0 0 0 0.33 0"/>
<feBlend mode="normal" in2="BackgroundImageFix" result="effect1_dropShadow_552_81246"/>
<feColorMatrix in="SourceAlpha" type="matrix" values="0 0 0 0 0 0 0 0 0 0 0 0 0 0 0 0 0 0 127 0" result="hardAlpha"/>
<feOffset dy="27"/>
<feGaussianBlur stdDeviation="13.5"/>
<feColorMatrix type="matrix" values="0 0 0 0 0 0 0 0 0 0 0 0 0 0 0 0 0 0 0.29 0"/>
<feBlend mode="normal" in2="effect1_dropShadow_552_81246" result="effect2_dropShadow_552_81246"/>
<feColorMatrix in="SourceAlpha" type="matrix" values="0 0 0 0 0 0 0 0 0 0 0 0 0 0 0 0 0 0 127 0" result="hardAlpha"/>
<feOffset dy="61"/>
<feGaussianBlur stdDeviation="18.5"/>
<feColorMatrix type="matrix" values="0 0 0 0 0 0 0 0 0 0 0 0 0 0 0 0 0 0 0.17 0"/>
<feBlend mode="normal" in2="effect2_dropShadow_552_81246" result="effect3_dropShadow_552_81246"/>
<feColorMatrix in="SourceAlpha" type="matrix" values="0 0 0 0 0 0 0 0 0 0 0 0 0 0 0 0 0 0 127 0" result="hardAlpha"/>
<feOffset dy="108"/>
<feGaussianBlur stdDeviation="21.5"/>
<feColorMatrix type="matrix" values="0 0 0 0 0 0 0 0 0 0 0 0 0 0 0 0 0 0 0.05 0"/>
<feBlend mode="normal" in2="effect3_dropShadow_552_81246" result="effect4_dropShadow_552_81246"/>
<feColorMatrix in="SourceAlpha" type="matrix" values="0 0 0 0 0 0 0 0 0 0 0 0 0 0 0 0 0 0 127 0" result="hardAlpha"/>
<feOffset dy="169"/>
<feGaussianBlur stdDeviation="23.5"/>
<feColorMatrix type="matrix" values="0 0 0 0 0 0 0 0 0 0 0 0 0 0 0 0 0 0 0.01 0"/>
<feBlend mode="normal" in2="effect4_dropShadow_552_81246" result="effect5_dropShadow_552_81246"/>
<feBlend mode="normal" in="SourceGraphic" in2="effect5_dropShadow_552_81246" result="shape"/>
</filter>
<clipPath id="clip0_552_81246">
<rect width="300.445" height="228.009" fill="white" transform="translate(253.751 63.0625) rotate(0.418737)"/>
</clipPath>
</defs>
</svg>
