<svg width="676" height="676" viewBox="0 0 676 676" fill="none" xmlns="http://www.w3.org/2000/svg">
<path d="M559.002 157.589C559.002 135.122 540.794 116.981 518.411 116.981C496.027 116.981 477.803 135.122 477.803 157.589C477.803 179.973 496.027 198.113 518.411 198.113C540.794 198.113 559.002 179.973 559.002 157.589Z" fill="url(#paint0_linear_408_81184)"/>
<path d="M613.091 474.564C611.588 507.522 606.076 525.429 601.499 537.321C595.351 553.091 588.019 564.366 576.126 576.192C564.366 588.019 553.09 595.335 537.321 601.415C525.428 606.059 507.454 611.588 474.498 613.159C438.868 614.729 428.311 615.063 337.958 615.063C247.689 615.063 237.048 614.729 201.418 613.159C168.462 611.588 150.571 606.059 138.677 601.415C122.825 595.335 111.634 588.019 99.8076 576.192C87.8971 564.366 80.5644 553.091 74.5008 537.321C69.9231 525.429 64.328 507.522 62.9073 474.564C61.1709 438.935 60.8527 428.21 60.8527 338.042C60.8527 247.689 61.1709 237.048 62.9073 201.418C64.328 168.462 69.9231 150.571 74.5008 138.577C80.5644 122.826 87.8971 111.617 99.8076 99.7901C111.634 87.9811 122.825 80.6472 138.677 74.5009C150.571 69.8405 168.462 64.3945 201.418 62.8247C237.048 61.2537 247.689 60.8527 337.958 60.8527C428.311 60.8527 438.868 61.2537 474.498 62.8247C507.454 64.3945 525.428 69.8405 537.321 74.5009C553.09 80.6472 564.366 87.9811 576.126 99.7901C588.019 111.617 595.351 122.826 601.499 138.577C606.076 150.571 611.588 168.462 613.091 201.418C614.745 237.048 615.146 247.689 615.146 338.042C615.146 428.21 614.745 438.935 613.091 474.564ZM673.945 198.646C672.292 162.631 666.611 138.026 658.176 116.595C649.591 94.3617 638.081 75.5194 619.239 56.6772C600.48 37.9188 581.638 26.4093 559.405 17.7236C537.89 9.37109 513.368 3.62439 477.337 2.05463C441.306 0.317017 429.798 0 337.958 0C246.202 0 234.61 0.317017 198.579 2.05463C162.631 3.62439 138.126 9.37109 116.511 17.7236C94.3616 26.4093 75.5194 37.9188 56.7611 56.6772C37.9188 75.5194 26.4092 94.3617 17.7398 116.595C9.3873 138.026 3.70832 162.631 1.97067 198.646C0.400899 234.676 0 246.202 0 338.042C0 429.798 0.400899 441.306 1.97067 477.337C3.70832 513.285 9.3873 537.873 17.7398 559.405C26.4092 581.554 37.9188 600.481 56.7611 619.239C75.5194 637.997 94.3616 649.591 116.511 658.26C138.126 666.611 162.631 672.292 198.579 673.945C234.61 675.599 246.202 676 337.958 676C429.798 676 441.306 675.599 477.337 673.945C513.368 672.292 537.89 666.611 559.405 658.26C581.638 649.591 600.48 637.997 619.239 619.239C638.081 600.481 649.591 581.554 658.176 559.405C666.611 537.873 672.292 513.285 673.945 477.337C675.599 441.306 676 429.798 676 338.042C676 246.202 675.599 234.676 673.945 198.646Z" fill="url(#paint1_linear_408_81184)"/>
<path d="M337.957 450.612C275.767 450.612 225.304 400.232 225.304 338.042C225.304 275.752 275.767 225.307 337.957 225.307C400.164 225.307 450.693 275.752 450.693 338.042C450.693 400.232 400.164 450.612 337.957 450.612ZM337.957 164.37C242.092 164.37 164.451 242.177 164.451 338.042C164.451 433.825 242.092 511.549 337.957 511.549C433.822 511.549 511.546 433.825 511.546 338.042C511.546 242.177 433.822 164.37 337.957 164.37Z" fill="url(#paint2_linear_408_81184)"/>
<defs>
<linearGradient id="paint0_linear_408_81184" x1="6.09574" y1="669.012" x2="619.695" y2="55.416" gradientUnits="userSpaceOnUse">
<stop stop-color="#FFD521"/>
<stop offset="0.05" stop-color="#FFD521"/>
<stop offset="0.501119" stop-color="#F50000"/>
<stop offset="0.95" stop-color="#B900B4"/>
<stop offset="0.950079" stop-color="#B900B4"/>
<stop offset="1" stop-color="#B900B4"/>
</linearGradient>
<linearGradient id="paint1_linear_408_81184" x1="6.09743" y1="669.852" x2="620.2" y2="55.7502" gradientUnits="userSpaceOnUse">
<stop stop-color="#FFD521"/>
<stop offset="0.05" stop-color="#FFD521"/>
<stop offset="0.501119" stop-color="#F50000"/>
<stop offset="0.95" stop-color="#B900B4"/>
<stop offset="0.950079" stop-color="#B900B4"/>
<stop offset="1" stop-color="#B900B4"/>
</linearGradient>
<linearGradient id="paint2_linear_408_81184" x1="6.25522" y1="669.87" x2="620.209" y2="55.9155" gradientUnits="userSpaceOnUse">
<stop stop-color="#FFD521"/>
<stop offset="0.05" stop-color="#FFD521"/>
<stop offset="0.501119" stop-color="#F50000"/>
<stop offset="0.95" stop-color="#B900B4"/>
<stop offset="0.950079" stop-color="#B900B4"/>
<stop offset="1" stop-color="#B900B4"/>
</linearGradient>
</defs>
</svg>
